<svg viewBox="0 0 64 40" fill="none" xmlns="http://www.w3.org/2000/svg">
    <mask id="r1ydltxuca" style="mask-type:alpha" maskUnits="userSpaceOnUse" x="0" y="0" width="64" height="40">
        <path fill="#D9D9D9" d="M0 0h64v40H0z"/>
    </mask>
    <g mask="url(#r1ydltxuca)" fill="#fff">
        <path d="m10.04 21.224-5.5 1.659L0 24.214v14.418L4.54 37.3V34.18l7.498-2.249a3.543 3.543 0 0 0 2.543-3.394V24.63c0-2.368-2.27-4.071-4.54-3.394v-.011zm.023 7.629-5.588 1.68v-3.776l4.944-1.495c.731-.218 1.637.753 1.637 1.506 0 .873-.393 1.877-1.004 2.074l.01.01zM4.475 12.329l5.359 1.56v3.984l4.43 1.332V5.19l-4.43-1.32-.022 6.351-5.37-1.56.033-6.352L0 1v14.003l4.475 1.31v-3.984zM43.667 27.456a.953.953 0 0 1-1.233.916l-4.235-1.244a1.768 1.768 0 0 1-1.277-1.713V14.217c0-.786.524-1.484 1.277-1.714l4.235-1.244a.962.962 0 0 1 1.233.917v3.514l3.765-1.102V9.993a3.09 3.09 0 0 0-3.077-3.088c-.284 0-.579.043-.873.13l-6.33 1.856a5.553 5.553 0 0 0-3.984 5.315v11.198a5.53 5.53 0 0 0 3.983 5.315l6.33 1.855c.295.088.59.131.874.131a3.083 3.083 0 0 0 3.077-3.088v-4.41l-3.765-1.102V27.455zM26.87 8.89l-6.33-1.855a3.08 3.08 0 0 0-.873-.13 3.083 3.083 0 0 0-3.078 3.088v23.76l3.766-1.113V21.507l5.697-1.702-5.697-1.692v-5.937a.954.954 0 0 1 1.233-.917l4.235 1.244a1.768 1.768 0 0 1 1.277 1.714v16.48l3.765-1.124V14.217a5.53 5.53 0 0 0-3.984-5.315l-.01-.011z"/>
        <path d="m64 1.01-4.54 1.343v11.755l-5.173 1.539V3.849L49.735 5.19V17l-9.43 2.816 9.43 2.827V34.44l4.552 1.331V23.996l5.173 1.539v11.743L64 38.621V22.708l-9.746-2.881L64 16.945V1.011z"/>
    </g>
</svg>
